<svg width="53" height="62" viewBox="0 0 53 62" version="1.1" xmlns="http://www.w3.org/2000/svg" xmlns:xlink="http://www.w3.org/1999/xlink">
<g id="Canvas" fill="none">
<g id="blank-page">
<g id="Vector">
<path d="M 35.8484 0L 0 0L 0 45.2512L 35.8484 45.2512L 35.8484 0Z" transform="translate(16.7487 16.7488)" fill="#FF4181"/>
</g>
<g id="Vector_2">
<path d="M 35.8484 0L 0 0L 0 45.2512L 35.8484 45.2512L 35.8484 0Z" transform="translate(11.1658 11.1659)" fill="#FF755C"/>
</g>
<g id="Vector_3">
<path d="M 35.8484 0L 0 0L 0 45.2512L 35.8484 45.2512L 35.8484 0Z" transform="translate(5.58291 5.58289)" fill="#FF9356"/>
</g>
<g id="Vector_4">
<path d="M 35.8484 45.2512L 9.23872e-08 45.2512L 9.23872e-08 0L 24.9763 0L 35.8484 10.872L 35.8484 45.2512Z" fill="#FFCE47"/>
</g>
<g id="Vector_5">
<path d="M -7.68661e-07 0L -7.68661e-07 10.872L 10.872 10.872L -7.68661e-07 0Z" transform="translate(24.9763 0)" fill="#FFEBB4"/>
</g>
</g>
</g>
</svg>

