<svg width="48" height="48" viewBox="0 0 48 48" version="1.1" xmlns="http://www.w3.org/2000/svg" xmlns:xlink="http://www.w3.org/1999/xlink">
<g id="Canvas" fill="none">
<g id="shopping-cart">
<g id="Page 1">
<g id="feather icon">
<g id="shopping cart">
<g id="Oval">
<path d="M 8 4C 8 6.20914 6.20914 8 4 8C 1.79086 8 0 6.20914 0 4C 0 1.79086 1.79086 0 4 0C 6.20914 0 8 1.79086 8 4Z" stroke-width="4" stroke-linecap="round" stroke-linejoin="round" transform="translate(12 38)" stroke="#1AB0CE"/>
</g>
<g id="Oval_2">
<path d="M 8 4C 8 6.20914 6.20914 8 4 8C 1.79086 8 0 6.20914 0 4C 0 1.79086 1.79086 0 4 0C 6.20914 0 8 1.79086 8 4Z" stroke-width="4" stroke-linecap="round" stroke-linejoin="round" transform="translate(36 38)" stroke="#1AB0CE"/>
</g>
<g id="Shape">
<path d="M 9.34 10L 44 10L 40.64 26.78C 40.2625 28.6805 38.5772 30.0371 36.64 30L 15.5 30C 13.479 30.0171 11.7627 28.524 11.5 26.52L 8.46 3.48C 8.19924 1.49119 6.50583 0.00303711 4.5 0L 0 0" stroke-width="4" stroke-linecap="round" stroke-linejoin="round" transform="translate(2 2)" stroke="#1AB0CE"/>
</g>
</g>
</g>
</g>
</g>
</g>
</svg>

