<svg width="22" height="22" viewBox="0 0 22 22" version="1.1" xmlns="http://www.w3.org/2000/svg" xmlns:xlink="http://www.w3.org/1999/xlink">
<g id="Canvas" fill="none">
<g id="Shape">
<path d="M 19.8881 14.9201L 19.8881 17.9201C 19.8904 18.4832 19.6552 19.0213 19.2402 19.402C 18.8252 19.7827 18.269 19.9708 17.7081 19.9201C 14.631 19.5857 11.6751 18.5342 9.07812 16.8501C 6.66195 15.3148 4.61346 13.2663 3.07812 10.8501C 1.3881 8.2413 0.336367 5.27109 0.0081238 2.1801C -0.042403 1.62097 0.144396 1.06635 0.52289 0.651719C 0.901383 0.237088 1.43672 0.000627009 1.99812 9.83189e-05L 4.99812 9.83189e-05C 6.00199 -0.00978184 6.85762 0.726066 6.99812 1.7201C 7.12475 2.68016 7.35957 3.62283 7.69812 4.5301C 7.97286 5.26097 7.79714 6.0849 7.24812 6.6401L 5.97812 7.9101C 7.40168 10.4136 9.47458 12.4865 11.9781 13.9101L 13.2481 12.6401C 13.8033 12.0911 14.6272 11.9154 15.3581 12.1901C 16.2654 12.5286 17.2081 12.7635 18.1681 12.8901C 19.1737 13.032 19.9133 13.9049 19.8881 14.9201Z" stroke-width="2" stroke-linecap="round" stroke-linejoin="round" transform="translate(1 1)" stroke="#3A4047"/>
</g>
</g>
</svg>

