<svg width="98" height="98" viewBox="0 0 98 98" version="1.1" xmlns="http://www.w3.org/2000/svg" xmlns:xlink="http://www.w3.org/1999/xlink">
<title>Group 2</title>
<desc>Created using Figma</desc>
<g id="Canvas" transform="translate(-1711 -264)">
<g id="Group 2">
<g id="tick">
<use xlink:href="#path0_fill" transform="translate(1733 296)" fill="#4A90E2"/>
</g>
<g id="Ellipse">
<mask id="mask0_outline_ins">
<use xlink:href="#path1_fill" fill="white" transform="translate(1711 264)"/>
</mask>
<g mask="url(#mask0_outline_ins)">
<use xlink:href="#path2_stroke_2x" transform="translate(1711 264)" fill="#619EE6"/>
</g>
</g>
</g>
</g>
<defs>
<path id="path0_fill" fill-rule="evenodd" d="M 17.1843 30.0625L 4.2999 18.1545L 0 22.1144L 17.1843 38L 54 3.97406L 49.7154 0L 17.1843 30.0625Z"/>
<path id="path1_fill" d="M 98 49C 98 76.062 76.062 98 49 98C 21.938 98 0 76.062 0 49C 0 21.938 21.938 0 49 0C 76.062 0 98 21.938 98 49Z"/>
<path id="path2_stroke_2x" d="M 95 49C 95 74.4051 74.4051 95 49 95L 49 101C 77.7188 101 101 77.7188 101 49L 95 49ZM 49 95C 23.5949 95 3 74.4051 3 49L -3 49C -3 77.7188 20.2812 101 49 101L 49 95ZM 3 49C 3 23.5949 23.5949 3 49 3L 49 -3C 20.2812 -3 -3 20.2812 -3 49L 3 49ZM 49 3C 74.4051 3 95 23.5949 95 49L 101 49C 101 20.2812 77.7188 -3 49 -3L 49 3Z"/>
</defs>
</svg>
